<svg id="Layer_1" data-name="Layer 1" xmlns="http://www.w3.org/2000/svg" xmlns:xlink="http://www.w3.org/1999/xlink" width="1280" height="195" viewBox="0 0 1280 195"><defs><style>.cls-1{fill:none;}.cls-2{fill:#fff;}.cls-3{fill:#ffcb05;}.cls-4{clip-path:url(#clip-path);}</style><clipPath id="clip-path"><rect class="cls-1" x="6.043" y="8.434" width="1267.5477" height="182.0416"/></clipPath></defs><title>signature-stationery-white</title><rect class="cls-2" x="299.069" y="8.434" width="3.7892" height="174.4833"/><path class="cls-2" d="M952.8066,183.0994V181.36c2.2115-.1282,3.8971-.31,3.8971-2.1036a7.821,7.821,0,0,0-.3708-1.9214l-.971-3.27H944.008l-.9979,2.7711a6.3536,6.3536,0,0,0-.4246,2.0226c0,2.2654,2.4272,2.4271,4.3755,2.5014v1.7395H933.6855V181.36c3.3711-.1282,4.4769-.8156,5.7175-4.1869l8.7179-23.935-.5058-.7957c3.7419-1.2068,4.7938-1.7868,6.4051-2.9462.6271,2.1573.7349,2.4472,1.4428,4.74l7.14,21.9393c1.2609,3.87,1.8676,4.8479,5.2928,5.1849v1.7395Zm-2.8991-25.89-4.74,13.3835h9.2706Zm-112.3264,18.73c-1.4226,2.32-4.8477,8.03-13.7475,8.03-9.7156,0-16.0129-7.16-16.0129-16.5655,0-8.7447,5.3466-17.3277,16.2219-17.3277a15.8982,15.8982,0,0,1,10.6663,3.87l2.1845-2.0027.1889,9.7968-1.45.2627a13.1029,13.1029,0,0,0-3.479-5.6567,9.4587,9.4587,0,0,0-6.7422-3.1623c-5.8187,0-10.43,4.767-10.43,13.1408,0,7.0593,3.7959,13.7475,11.2462,13.7475,5.6365,0,7.7738-3.1619,9.4593-5.5824Zm5.4546,7.16V181.36c3.661-.31,3.688-1.1057,3.688-4.1869.0472-1.1327.0472-2.2856.0472-3.4183V160.2162c0-2.11,0-4.2141-.1281-5.2186-.1889-1.9216-1.1057-2.1845-3.6071-2.4205v-1.7395h13.8217v1.7395c-2.71.29-3.7083.371-4.0252,2.1575a33.0185,33.0185,0,0,0-.29,5.3467v4.45c2.7912.135,4.74.2158,7.45.2158,2.7172,0,4.8747-.0808,7.6391-.2158v-5.4207c-.0541-5.8725-.1079-6.1153-4.4768-6.5334v-1.7123h13.9834v1.7123c-3.7352.472-3.7352.4989-3.7352,6.6346v13.6194c0,1.2606.02,5.3466.182,6.29.2091,1.7125,1.1868,2.0024,3.5532,2.2384v1.7395H863.1547V181.36c3.2362-.337,4.106-.4448,4.3959-2.6565.0809-.9506.0809-2.1576.0809-4.5038v-5.9263c-2.5554-.0811-4.6859-.209-7.3221-.209-2.7914,0-4.9759.0808-7.74.209V174.2c.0269,6.7155.128,6.7155,4.2881,7.16v1.7395Zm39.82,0V181.36c3.1621-.3909,3.789-.7617,3.8161-4.133V160.0274c-.0271-6.7154-.0271-6.8975-3.8161-7.45v-1.7123h13.4036v1.7123c-3.7891.371-3.7891.5528-3.7891,7.45v13.04c0,1.1325.0472,4.7668.128,5.69.209,1.9755,1.1327,2.4477,3.6611,2.63v1.7125Zm-91.9174,0V181.36c3.162-.3909,3.7958-.7617,3.816-4.133V160.0274c-.02-6.7154-.02-6.8975-3.816-7.45v-1.7123h13.3765v1.7123c-3.7891.371-3.7891.5528-3.7891,7.45v13.04c0,1.1325.054,4.7668.1551,5.69.2157,1.9755,1.1327,2.4477,3.634,2.63v1.7125Zm-20.3348,0V181.36c4.0589-.2629,4.0589-.4448,4.1128-6.4252V158.7128l-11.2731,24.8113h-2.8452l-10.3764-25.1554-.2359,18.9662c0,3.1621.3707,3.7621,3.7891,4.025v1.7395H742.5824V181.36c2.6093-.1282,3.6341-.4989,3.796-2.6565.1012-.8695.2359-3.607.29-5.3734l.4451-13.5386c.0539-1.0519.0539-2.6091.0539-3.7352,0-3.1892-.6336-3.425-3.533-3.4791v-1.7395h10.1405l10.0662,24.4946,11.0574-24.4946h9.8234v1.9216c-3.843.2158-3.87.6607-3.843,5.6635v13.3026c0,2.2115.0539,4.9487.1819,6.58.1889,2.4,1.1057,2.8182,3.6611,3.0542v1.7395Zm199.3757,0V181.36c2.6566-.1282,3.6611-.1549,4.0253-1.9956.4516-2.1374.6068-21.2855.6337-24.63-1.7866-1.6586-2.5014-1.9754-4.659-2.1575v-1.7123h9.6888c2.7171,3.8159,3.297,4.6857,8.0637,10.5852l9.0077,11.1448V158.16c-.054-5.1108-.1888-5.4007-5.3265-5.5828v-1.7123h12.7228v1.7123c-3.5262.0541-3.8432.7888-3.87,6.0276l-.4719,24.9194h-1.9284l-2.8924-3.6069c-1.4226-1.8206-2.9261-3.6611-4.3757-5.4547l-12.743-15.723V175.46c0,5.2456.3439,5.4275,5.2927,5.9265v1.7125Zm-269.165-16.168c0,11.1652-7.6121,17.011-16.1478,17.011-9.3986,0-16.7209-6.7694-16.7209-17.065,0-8.7986,5.9-16.7476,16.2759-16.7207,9.77.0474,16.5928,6.9783,16.5928,16.7747ZM684.6933,180.969a8.0753,8.0753,0,0,0,6.3984-4.0049c2.2655-3.4993,2.7442-6.7153,2.6093-10.9025-.1282-4.16-1.2877-7.7468-3.6611-10.2751a7.339,7.339,0,0,0-11.4551.1889c-2.2922,2.6092-3.3441,6.2163-3.3441,10.3763,0,4.187.5528,7.403,2.9464,10.8213a8.0467,8.0467,0,0,0,6.5062,3.796Zm19.3571.3708v1.76h13.3565v-1.76c-3.3172-.3169-3.7419-.6338-3.8431-4.1668l.02-9.2166h3.5869c3.607,0,5.5286.3437,5.7375,3.951h1.5846V161.2679h-1.5846c-.1549,3.4791-1.1326,3.8162-5.0567,3.8162H713.584V153.9188a24.41,24.41,0,0,1,3.85-.1821c6.3176,0,8.347-.0267,9.2168,5.0028h1.5777l-.5259-7.8747H704.05v1.7123c2.3193.236,3.3239.371,3.6611,1.8676a49.9961,49.9961,0,0,1,.2629,5.8456v11.327c0,.8969-.0472,4.7668-.1012,5.5557-.0809,3.533-.4786,3.85-3.8228,4.1668ZM426.7,182.8906v-1.7667c3.1553-.3911,3.7891-.7617,3.8431-4.16V159.7914c-.054-6.7154-.054-6.8973-3.8431-7.4234v-1.7664h13.4037v1.7664c-3.7959.3644-3.7959.5261-3.7959,7.4234v13.04c0,1.1324.0539,4.7665.1347,5.7106.236,1.9553,1.16,2.4273,3.6612,2.5822v1.7667Zm142.1676,0v-1.7667c3.1284-.3911,3.7891-.7617,3.8161-4.16V159.7914c-.027-6.7154-.027-6.8973-3.8161-7.4234v-1.7664h13.3767v1.7664c-3.7959.3644-3.7959.5261-3.7959,7.4234v13.04c0,1.1324.0269,4.7665.1348,5.7106.2089,1.9553,1.1328,2.4273,3.6611,2.5822v1.7667Zm-181.4414,0v-1.7667c2.6362-.101,3.6342-.1549,4.032-2.0024.4449-2.1574.58-21.2785.6336-24.6229a6.2655,6.2655,0,0,0-4.6656-2.1306v-1.7393h9.6955c2.6834,3.816,3.29,4.686,8.03,10.5853l9.0075,11.1652V157.9237c-.054-5.1106-.182-5.3734-5.2927-5.5557v-1.7393h12.6957v1.7393c-3.5329.0272-3.843.7619-3.87,6.0007l-.4788,24.9465h-1.8945l-2.8992-3.6408c-1.47-1.8138-2.9193-3.6341-4.396-5.4207l-12.7226-15.75v16.7477c0,5.2186.344,5.4007,5.3,5.9v1.7395Zm154.7622-10.06,1.6585-.1889c1.76,5.2725,4.74,8.0906,9.5876,8.0906,3.4184,0,6.4524-1.4494,6.4524-4.9285,0-3.6611-3.5329-5.1107-5.0837-5.7646-1.2946-.4989-2.6632-.9236-3.9241-1.4226-2.663-.9508-7.6389-3.0071-7.6389-9.2708,0-6.0343,4.74-9.4324,10.2684-9.4324a13.587,13.587,0,0,1,7.43,2.2117l1.9485-1.3958,1.0519,9.5877-1.6047.3166a11.4456,11.4456,0,0,0-2.2385-4.7665,7.5726,7.5726,0,0,0-6.2973-2.9735c-3.425,0-5.4208,1.6587-5.4208,4.214,0,3.8429,3.7891,5.1309,7.3963,6.29A26.6311,26.6311,0,0,1,560.413,165.3a9.3282,9.3282,0,0,1,4.6589,8.212c0,5.5826-4.5578,10.1943-11.354,10.1943a14.6033,14.6033,0,0,1-8.3739-2.5551l-2.6834-1.9488Zm53.0415,10.06v-1.3687c2.9733-.054,3.789-1.16,3.789-3.688v-23.78h-4.025c-3.6408,0-6.0613-.1619-6.3512,5.61h-1.6586l.263-9.0347h29.3154l.2628,9.0347h-1.7124c-.263-5.7715-2.6834-5.61-6.3243-5.61h-4.0251v23.78c0,2.5551.8157,3.634,3.7891,3.688v1.3687ZM362.7229,150.6287v1.7393c-4.2882.3171-4.2882.4451-4.3153,7.2954v7.585c0,3.951.0743,7.3219,2.1576,10.3492a6.9464,6.9464,0,0,0,5.8455,2.71c4.6387,0,7.167-2.3934,8.2728-6.2164.9169-3,.944-8.6636.944-12.4259,0-1.1866,0-5.0365-.0271-6.0614-.2089-2.9463-1.7058-3.0273-4.5779-3.2364v-1.7664H383.32v1.7664c-3.0273-.0806-3.6612.607-3.8431,3.8432-.0539.7349-.4249,9.7156-.4517,11.0846a38.0139,38.0139,0,0,1-.789,7.2206c-2.1844,8.6908-10.6392,9.1359-12.8776,9.1359a15.5636,15.5636,0,0,1-8.455-2.2924c-4.7935-3.2361-4.8475-8.084-4.8475-13.2689v-7.3221c-.0539-3.4787-.0539-5.03-.1282-5.8454-.29-2.0294-1.2945-2.4273-3.7149-2.5555v-1.7393Zm114.41,0v1.7393c-3.1081.4451-3.5263,1.3148-6.1893,7.7133L461.12,183.5241h-1.74l-8.8189-23.8068c-2.1913-6.1423-2.4812-6.85-5.7175-7.3493v-1.7393h15.3253v1.7393c-2.63.0743-4.3152.1823-4.3152,2.05,0,.8969.236,1.6855,1.1058,4.3756l5.6365,16.4041,6.56-16.9569a13.1537,13.1537,0,0,0,.9439-3.4249c0-2.32-2.2654-2.4205-4.2948-2.4477v-1.7393Zm152.9418,32.2619v-1.7667c2.5283-.2629,3.4992-.3438,4.1329-.9979.735-.7146.735-1.53.7619-5.0567v-5.6635l-8.556-13.3025c-2.3461-3.4721-2.4-3.553-5.4814-3.7353v-1.7932h16.7817v1.7932c-3.3713.0743-4.9017.1823-4.9017,1.7127,0,.89.6068,1.8947,1.4226,3.2634l4.9487,8.084,4.5579-8.0573a8.7481,8.7481,0,0,0,1.2877-3.27c0-1.5506-1.3417-1.5777-3.58-1.7329v-1.7932h12.5879v1.7932c-3.2363.0743-4.1869,1.0519-7.8749,7.0594l-5.03,8.4278V174.57c0,5.8458.0271,6.3176,4.8209,6.5808v1.7395Zm-125.3119,0a78.4906,78.4906,0,0,1,.6809-8.3742h-1.5508c-1.1056,5.7647-4.3488,5.475-9.0076,5.475-4.2948,0-5.1646-1.1329-5.1646-3.2363v-9.0079h3.4791c3.9779,0,5.1106.3438,5.1106,3.9512h1.5507V161.0321H498.31c-.317,2.8719-.8968,3.8431-5.0567,3.8431H489.72V153.5009h3.9781c5.4813,0,7.4568.391,8.1917,4.7668h1.45l-.1888-7.639H480.1865v1.7126c2.3195.2358,3.3174.364,3.6341,1.8944a45.3956,45.3956,0,0,1,.2631,5.8186v11.3541c0,.87-.0269,4.74-.0472,5.5286-.1079,3.533-.5326,3.8431-3.85,4.16v1.7936Zm427.2915-14.0377v1.74c-2.926.1549-2.926.9977-3.007,7.1332v2.4274a21.377,21.377,0,0,1-12.426,3.7892c-11.091,0-16.4107-8.4281-16.4107-16.8829,0-10.3222,7.0054-17.0375,15.75-17.0375,5.5286,0,8.6908,2.0563,11.3269,3.6608l1.6856-1.9216.236,10.0867-1.2944.2358a16.7574,16.7574,0,0,0-4.0791-6.56,8.9359,8.9359,0,0,0-6.3985-2.3936c-5.6365,0-10.3022,4.74-10.3022,14.0375,0,7.4029,3.6612,13.7477,9.9314,13.7477a7.1116,7.1116,0,0,0,5.61-2.7107,4.4506,4.4506,0,0,0,.6608-3.0339c-.1619-4.1328-.7147-4.2139-4.2949-4.5779v-1.74Zm-412.31-3.29a16.6319,16.6319,0,0,0,3.034.3372c3.6611.0269,6.4254-2.8656,6.5534-5.4479.2158-3.7419-1.6855-6.9782-7.6119-6.9782a7.5423,7.5423,0,0,0-1.9755.1823Zm0,7.0593c.0539,7.3694.0539,8.4009,3.924,8.475v1.7936H510.1831V181.097c3.4789-.263,3.85-.8159,3.9037-4.288.0472-1.3486.0472-2.8455.0472-4.1668v-11.664a54.4405,54.4405,0,0,0-.1821-6.2975c-.236-1.7866-1.1057-2.1036-3.742-2.3394v-1.7126l14.6173.0268c7.9559,0,10.4573,3.7892,10.4573,8.2661a8.9972,8.9972,0,0,1-6.3715,8.5359l5.7378,9.9313c2.0563,3.8162,3.1621,4.6859,5.7714,5.0567v1.0786c-.7147.0541-1.3958.1012-2.11.1012-6.0816,0-8.61-2.1034-11.1652-7.5581l-1.7934-3.789c-1.9216-4.059-2.5487-3.796-5.61-3.87Zm0,0"/><path class="cls-3" d="M128.0375,152.4693l-49.96-68.2925v49.6771H97.96v49.0634H6.043V133.8539H24.6651V57.4976H6.043V8.434h72.19l49.805,68.7914L177.863,8.434h72.1693V57.4976H231.41v76.3563h18.6221v49.0634h-91.89V133.8539h19.8558V84.1768Zm0,0"/><path class="cls-2" d="M370.0718,32.8747a14.7077,14.7077,0,0,1-.4989,4.0051,7.3471,7.3471,0,0,1-1.6855,3.1082,8.6765,8.6765,0,0,1-2.8723,2.0226,9.034,9.034,0,0,1-4.0791.7418,9.2031,9.2031,0,0,1-5.32-1.3148,7.8322,7.8322,0,0,1-2.7441-3.5062,15.4163,15.4163,0,0,1-.9979-4.7935c-.081-1.7125-.1349-3.4993-.1349-5.32,0-1.9755,0-3.7149.0539-5.2657.0271-1.5574.108-2.98.2092-4.2409.4786-6.4522,3.5867-9.6951,9.3245-9.6951A8.7217,8.7217,0,0,1,367.57,10.7c1.5036,1.3954,2.2387,3.6608,2.2387,6.796V18.13h-3.0005v-.3977a.713.713,0,0,1,.0539-.344q0-6.3207-5.5353-6.3174a5.4385,5.4385,0,0,0-3.7082,1.1528,6.7518,6.7518,0,0,0-1.9754,2.8183,11.6244,11.6244,0,0,0-.715,3.715c-.0539,1.3687-.1078,2.6633-.1279,3.8229V31.56a10.8276,10.8276,0,0,0,1.6315,6.3715,5.3045,5.3045,0,0,0,4.632,2.3193,5.6787,5.6787,0,0,0,2.9262-.6874,5.2316,5.2316,0,0,0,1.8136-1.7666,6.4072,6.4072,0,0,0,.8968-2.42,17.5089,17.5089,0,0,0,.29-2.6835h3.0812Zm0,0"/><path class="cls-2" d="M379.5784,42.1184V9.25h14.88v2.4477H382.5046V24.002h11.4281v2.4473H382.5046V39.644h12.2979v2.4744Zm0,0"/><path class="cls-2" d="M420.4029,42.1184,406.9453,12.54V42.1184H404.073V9.25h4.45l13.5655,29.5785V9.25h2.8722V42.1184Zm0,0"/><path class="cls-2" d="M444.21,11.6975V42.1184h-2.8925V11.6975h-7.9829V9.25h18.8583v2.4477Zm0,0"/><path class="cls-2" d="M460.5126,42.1184V9.25h14.88v2.4477h-11.981V24.002H474.84v2.4473H463.4119V39.644H475.71v2.4744Zm0,0"/><path class="cls-2" d="M501.735,17.0439a15.9516,15.9516,0,0,1-.27,3.2162,6.5339,6.5339,0,0,1-.8629,2.2922,5.4063,5.4063,0,0,1-1.6384,1.5508A7.5458,7.5458,0,0,1,496.5164,25a5.1264,5.1264,0,0,1,3.5329,1.6045,6.7814,6.7814,0,0,1,1.1531,4.0859l.1887,7.5581.3169,3.87h-2.98c-.0539-.4179-.1011-.9506-.1281-1.5508-.027-.6068-.0809-1.1325-.1349-1.5572l-.0808-1.45-.1552-6.1086a8.35,8.35,0,0,0-.3707-2.5283,3.7071,3.7071,0,0,0-1.0249-1.6586,3.8143,3.8143,0,0,0-1.9755-.8159c-.8158-.1078-1.7935-.2088-2.9531-.2627h-4.3689V42.1184h-2.8992V9.25h8.3806a22.7409,22.7409,0,0,1,3.7623.29,5.9715,5.9715,0,0,1,2.7373,1.0786,5.0861,5.0861,0,0,1,1.6383,2.3734,12.9937,12.9937,0,0,1,.58,4.052Zm-3.0071-.1012a6.6118,6.6118,0,0,0-.6337-3.27,3.2,3.2,0,0,0-1.7329-1.4969,8.3229,8.3229,0,0,0-2.6362-.4786c-1.0248-.0271-2.1575-.0271-3.3711,0h-2.8182V23.7391h3.7419A27.0084,27.0084,0,0,0,494.46,23.55a5.7373,5.7373,0,0,0,2.3732-.8695,3.5516,3.5516,0,0,0,1.3956-2.05,14.1962,14.1962,0,0,0,.499-3.6882Zm0,0"/><g class="cls-4"><path class="cls-2" d="M528.8591,11.6975V24.002h10.1944v2.4473H528.8591V42.1184h-2.953V9.25h13.9361v2.4477Zm0,0"/><path class="cls-2" d="M567.3642,27.13c0,2.11-.0808,4.0859-.209,5.98a13.5677,13.5677,0,0,1-1.2945,4.9557,8.34,8.34,0,0,1-3.0542,3.4185,10.3721,10.3721,0,0,1-5.5826,1.2675c-3.1891,0-5.61-.9509-7.2412-2.8722-1.6317-1.8948-2.4543-4.7668-2.4543-8.583V20.1252a19.4186,19.4186,0,0,1,.5327-4.578,10.0892,10.0892,0,0,1,1.7328-3.688,8.6206,8.6206,0,0,1,3.1082-2.5016,9.3042,9.3042,0,0,1,4.5038-.9236,10.3826,10.3826,0,0,1,4.5579.9236,8.4,8.4,0,0,1,3.0812,2.5016,9.8073,9.8073,0,0,1,1.7663,3.7621,19.4789,19.4789,0,0,1,.5529,4.8207Zm-2.953-5.3937a31.6521,31.6521,0,0,0-.2361-4.0049,11.6692,11.6692,0,0,0-.9438-3.4792,5.7555,5.7555,0,0,0-2.1375-2.3934,7.2453,7.2453,0,0,0-3.6879-.9238,6.3188,6.3188,0,0,0-3.688.9506,6.5485,6.5485,0,0,0-2.1036,2.4744,9.6985,9.6985,0,0,0-.8967,3.3714c-.1281,1.2337-.2091,2.4744-.236,3.7147V29.74c0,3.6074.4988,6.27,1.5034,7.956.998,1.7126,2.8184,2.5823,5.4209,2.6093a6.0772,6.0772,0,0,0,4.187-1.3216,7.054,7.054,0,0,0,2.0293-3.3712,18.7675,18.7675,0,0,0,.6877-4.6589c.0741-1.7126.1013-3.4249.1013-5.1374Zm0,0"/></g><path class="cls-2" d="M594.5424,17.0439a15.8372,15.8372,0,0,1-.29,3.2162,6.4053,6.4053,0,0,1-.8428,2.2922,5.1193,5.1193,0,0,1-1.6585,1.5508A7.1618,7.1618,0,0,1,589.3037,25a5.2244,5.2244,0,0,1,3.5532,1.6045A6.7916,6.7916,0,0,1,593.99,30.69l.1821,7.5581.3169,3.87H591.542a11.5367,11.5367,0,0,1-.1348-1.5508c-.0539-.6068-.0742-1.1325-.155-1.5572l-.081-1.45-.1281-6.1086a9.3014,9.3014,0,0,0-.3708-2.5283,3.5336,3.5336,0,0,0-1.0518-1.6586,3.7438,3.7438,0,0,0-1.9485-.8159c-.8158-.1078-1.82-.2088-2.953-.2627H580.35V42.1184h-2.9261V9.25h8.374a22.8232,22.8232,0,0,1,3.7688.29,5.8538,5.8538,0,0,1,2.7375,1.0786,4.8925,4.8925,0,0,1,1.6316,2.3734,12.7105,12.7105,0,0,1,.6068,4.052Zm-3-.1012a6.6118,6.6118,0,0,0-.6337-3.27,3.2849,3.2849,0,0,0-1.74-1.4969,8.3909,8.3909,0,0,0-2.63-.4786c-1.0585-.0271-2.1643-.0271-3.3711,0H580.35V23.7391h3.7084a26.7659,26.7659,0,0,0,3.1891-.1889,5.4685,5.4685,0,0,0,2.3732-.8695,3.7491,3.7491,0,0,0,1.4226-2.05,17.0013,17.0013,0,0,0,.4989-3.6882Zm0,0"/><path class="cls-2" d="M393.38,132.8223l-5.8725-19.1952H358.9066l-5.7713,19.1952h-6.4727l23.0653-73.0054h7.6661l22.7552,73.0054ZM373.261,66.903l-12.4329,41.2427h24.9667Zm0,0"/><path class="cls-2" d="M448.0057,112.3055a33.9153,33.9153,0,0,1-1.1057,8.9067,16.5482,16.5482,0,0,1-3.7688,6.87,20.45,20.45,0,0,1-6.3446,4.5578,20.8174,20.8174,0,0,1-9.1155,1.6047c-5.1377,0-9.0616-.9708-11.826-2.9193a17.1408,17.1408,0,0,1-6.0815-7.8009,33.2208,33.2208,0,0,1-2.2115-10.6124c-.209-3.8429-.3168-7.7939-.3168-11.8259,0-4.3961.0539-8.2931.1078-11.7451.0741-3.4251.236-6.5871.499-9.4054q1.537-21.5213,20.7526-21.5416c5.9265,0,10.5315,1.5576,13.8554,4.6657q4.9353,4.6219,4.9488,15.0621v1.4226h-6.6882v-.9236a3.1373,3.1373,0,0,1,.1011-.7078q0-14.0681-12.2171-14.0644-5.37,0-8.3,2.5284a14.9828,14.9828,0,0,0-4.3421,6.2634,26.4354,26.4354,0,0,0-1.6315,8.3c-.135,3.0541-.2361,5.8723-.29,8.5087v19.91q0,9.0007,3.6341,14.1654a11.8463,11.8463,0,0,0,10.2955,5.1645,12.2474,12.2474,0,0,0,6.4794-1.53,11.86,11.86,0,0,0,4.0588-3.951,14.8164,14.8164,0,0,0,2.0226-5.3466,48.2037,48.2037,0,0,0,.6069-5.9736h6.877Zm0,0"/><path class="cls-2" d="M500.1776,132.8223l-5.8457-19.1952H465.7042l-5.7713,19.1952h-6.4793l23.072-73.0054h7.6929l22.7552,73.0054ZM480.0586,66.903l-12.4329,41.2427h24.9668Zm0,0"/><path class="cls-2" d="M558.2218,95.9286c0,4.632-.1282,9.1626-.3911,13.5317a34.2042,34.2042,0,0,1-2.7374,11.8529,18.2163,18.2163,0,0,1-7.4839,8.3739c-3.425,2.1105-8.1918,3.1352-14.2465,3.1352H515.9545V59.8169h20.3346a24.3221,24.3221,0,0,1,10.6124,2.0294,15.6787,15.6787,0,0,1,6.6883,5.8458,27.9251,27.9251,0,0,1,3.5262,9.2165,58.6727,58.6727,0,0,1,1.1058,11.9339Zm-6.7626-3.2431a84.672,84.672,0,0,0-.8968-13.7475,19.8255,19.8255,0,0,0-3.1351-8.4009,11.3193,11.3193,0,0,0-6.1893-4.16,36.754,36.754,0,0,0-9.7966-1.1058h-9.0076v62.1031h8.1918c5.0567,0,9.0077-.6068,11.826-1.82a11.796,11.796,0,0,0,6.1894-5.8724,31.2783,31.2783,0,0,0,2.42-10.72q.5159-6.6748.3978-16.2758Zm0,0"/><path class="cls-2" d="M572.185,132.8223V59.8169h33.0776v5.4546H578.6643V92.5777H604.049v5.4546H578.6643v29.3423h27.3063v5.4477Zm0,0"/><path class="cls-2" d="M674.0271,132.8223V66.1884l-21.6495,66.6339h-7.4771L622.961,66.1884v66.6339h-6.1624V59.8169H627.411l21.44,65.6293L669.894,59.8169H680.19v73.0054Zm0,0"/><rect class="cls-2" x="696.1755" y="59.8169" width="6.4793" height="73.0054"/><path class="cls-2" d="M757.0717,112.3055a33.9194,33.9194,0,0,1-1.1058,8.9067,16.8086,16.8086,0,0,1-3.742,6.87,19.292,19.292,0,0,1-15.487,6.1625c-5.1377,0-9.0616-.9708-11.8259-2.9193a17.14,17.14,0,0,1-6.0815-7.8009,33.9587,33.9587,0,0,1-2.2115-10.6124c-.2157-3.8429-.3169-7.7939-.3169-11.8259,0-4.3961.054-8.2931.1012-11.7451.0808-3.4251.2427-6.5871.5056-9.4054q1.5372-21.5213,20.7527-21.5416c5.9264,0,10.5314,1.5576,13.8487,4.6657q4.9453,4.6219,4.9556,15.0621v1.4226h-6.6884v-.9236a2.7988,2.7988,0,0,1,.1011-.7078q0-14.0681-12.217-14.0644-5.38,0-8.3,2.5284a14.9205,14.9205,0,0,0-4.3421,6.2634,26.4354,26.4354,0,0,0-1.6316,8.3c-.1348,3.0541-.2426,5.8723-.29,8.5087v19.91q0,9.0007,3.6341,14.1654a11.8614,11.8614,0,0,0,10.3224,5.1645,12.2115,12.2115,0,0,0,6.4525-1.53,11.7792,11.7792,0,0,0,4.052-3.951,14.825,14.825,0,0,0,2.0294-5.3466,49.4837,49.4837,0,0,0,.6068-5.9736h6.8772Zm0,0"/><rect class="cls-2" x="791.6528" y="59.8169" width="6.4793" height="73.0054"/><path class="cls-2" d="M850.1151,132.8223,820.1727,67.0851v65.7372h-6.3715V59.8169h9.8976l30.1582,65.7372V59.8169h6.3715v73.0054Zm0,0"/><path class="cls-2" d="M911.9012,132.8223,881.9588,67.0851v65.7372h-6.3715V59.8169h9.9247l30.1312,65.7372V59.8169h6.3714v73.0054Zm0,0"/><path class="cls-2" d="M979.8566,99.5627c0,4.6588-.1618,9.0548-.5057,13.2418a30.3988,30.3988,0,0,1-2.8182,11.037,18.4854,18.4854,0,0,1-6.7895,7.5851c-2.9531,1.8745-7.1131,2.8183-12.4328,2.8183-7.0861,0-12.4327-2.1305-16.0938-6.3713q-5.451-6.3617-5.4477-19.1211V83.9947a40.7745,40.7745,0,0,1,1.2069-10.2213,22.5982,22.5982,0,0,1,3.85-8.185,19.7165,19.7165,0,0,1,6.87-5.5894,21.3716,21.3716,0,0,1,10.0055-1.9957,23.0208,23.0208,0,0,1,10.1134,1.9957,19.639,19.639,0,0,1,6.9041,5.5894,22.1557,22.1557,0,0,1,3.924,8.3739,43.8971,43.8971,0,0,1,1.2136,10.72Zm-6.56-12.0418a80.0843,80.0843,0,0,0-.499-8.9A25.0742,25.0742,0,0,0,970.66,70.935a12.0155,12.0155,0,0,0-4.7667-5.3466,15.8428,15.8428,0,0,0-8.192-2.0294,12.9773,12.9773,0,0,0-12.8238,7.5851,21.6184,21.6184,0,0,0-2.0294,7.477c-.2628,2.7646-.445,5.5287-.499,8.3v18.4062q0,12.0147,3.3174,17.6985,3.3574,5.6536,12.0348,5.7715c4.0589,0,7.167-.9775,9.3246-2.953a15.5986,15.5986,0,0,0,4.5308-7.4773,41.6768,41.6768,0,0,0,1.53-10.3292c.1282-3.8162.2091-7.6322.2091-11.4013Zm0,0"/><path class="cls-2" d="M1015.2536,132.8223h-7.9828L986.936,59.8169h6.8771l17.4086,65.42,18.0963-65.42h6.2636Zm0,0"/><path class="cls-2" d="M1084.5439,132.8223l-5.8725-19.1952h-28.6278l-5.7712,19.1952H1037.82l23.0452-73.0054h7.6928l22.7551,73.0054ZM1064.425,66.903l-12.46,41.2427h24.9936Zm0,0"/><path class="cls-2" d="M1118.41,65.2715v67.5508h-6.4792V65.2715h-17.6985V59.8169h41.8762v5.4546Zm0,0"/><rect class="cls-2" x="1145.6222" y="59.8169" width="6.4793" height="73.0054"/><path class="cls-2" d="M1210.2469,99.5627c0,4.6588-.1819,9.0548-.4989,13.2418a30.5381,30.5381,0,0,1-2.8453,11.037,18.39,18.39,0,0,1-6.7693,7.5851c-2.9733,1.8745-7.1063,2.8183-12.4259,2.8183q-10.6293,0-16.0938-6.3713-5.4512-6.3617-5.4546-19.1211V83.9947a40.7733,40.7733,0,0,1,1.2137-10.2213,21.8428,21.8428,0,0,1,3.843-8.185,19.3206,19.3206,0,0,1,6.8772-5.5894,21.3014,21.3014,0,0,1,10.0056-1.9957,23.0214,23.0214,0,0,1,10.1134,1.9957,19.3666,19.3666,0,0,1,6.877,5.5894,22.6089,22.6089,0,0,1,3.951,8.3739,43.9082,43.9082,0,0,1,1.2069,10.72Zm-6.5805-12.0418a75.469,75.469,0,0,0-.499-8.9,25.0742,25.0742,0,0,0-2.1372-7.6861,12.1166,12.1166,0,0,0-4.74-5.3466,15.8415,15.8415,0,0,0-8.1918-2.0294,13.9991,13.9991,0,0,0-8.192,2.13,13.7957,13.7957,0,0,0-4.6589,5.4547,22.2292,22.2292,0,0,0-2.0293,7.477c-.263,2.7646-.4181,5.5287-.499,8.3v18.4062q0,12.0147,3.3442,17.6985c2.2115,3.7691,6.2433,5.6907,12.035,5.7715,4.0587,0,7.14-.9775,9.2976-2.953a15.6436,15.6436,0,0,0,4.5578-7.4773,44.3793,44.3793,0,0,0,1.53-10.3292c.1281-3.8162.182-7.6322.182-11.4013Zm0,0"/><path class="cls-2" d="M1260.3151,132.8223l-29.9426-65.7372v65.7372h-6.3713V59.8169h9.8976l30.1583,65.7372V59.8169h6.3714v73.0054Zm0,0"/></svg>